<svg id="Ebene_1" data-name="Ebene 1" xmlns="http://www.w3.org/2000/svg" viewBox="0 0 1728 1152"><defs><style>.cls-1{fill:#fff;}</style></defs><title>small-4er</title><rect class="cls-1" x="43.5" y="44.5" width="480" height="480"/><path d="M523,45V524H44V45H523m1-1H43V525H524V44Z"/><rect class="cls-1" x="43.5" y="608.5" width="480" height="480"/><path d="M523,609v479H44V609H523m1-1H43v481H524V608Z"/><rect class="cls-1" x="563.5" y="44.5" width="480" height="480"/><path d="M1043,45V524H564V45h479m1-1H563V525h481V44Z"/><rect class="cls-1" x="563.5" y="608.5" width="480" height="480"/><path d="M1043,609v479H564V609h479m1-1H563v481h481V608Z"/></svg>